<?xml version="1.0" encoding="utf-8"?>
<!-- Generator: Adobe Illustrator 23.0.1, SVG Export Plug-In . SVG Version: 6.00 Build 0)  -->
<svg version="1.1" id="Camada_1" focusable="false" xmlns="http://www.w3.org/2000/svg" xmlns:xlink="http://www.w3.org/1999/xlink"
	 x="0px" y="0px" viewBox="0 0 550.7 550.7" style="enable-background:new 0 0 550.7 550.7;" xml:space="preserve">
<style type="text/css">
	.st0{fill:url(#SVGID_1_);}
	.st1{fill:url(#SVGID_2_);}
	.st2{fill:#FFFFFF;}
	.st3{fill:url(#SVGID_3_);}
	.st4{fill:url(#SVGID_4_);}
	.st5{fill:url(#SVGID_5_);}
</style>
<g>
	<linearGradient id="SVGID_1_" gradientUnits="userSpaceOnUse" x1="374.2811" y1="355.2708" x2="176.4641" y2="157.4537">
		<stop  offset="0" style="stop-color:#16AE8F"/>
		<stop  offset="1" style="stop-color:#07FBC8"/>
	</linearGradient>
	<rect x="152.1" y="181.8" class="st0" width="246.5" height="149.2"/>
	<linearGradient id="SVGID_2_" gradientUnits="userSpaceOnUse" x1="470.0905" y1="470.0905" x2="80.6548" y2="80.6548">
		<stop  offset="0" style="stop-color:#16AE8F"/>
		<stop  offset="1" style="stop-color:#07FBC8"/>
	</linearGradient>
	<path class="st1" d="M275.4,0C123.3,0,0,123.3,0,275.4s123.3,275.4,275.4,275.4s275.4-123.3,275.4-275.4S427.5,0,275.4,0z
		 M439.3,342.3c0,16.2-13.1,29.3-29.3,29.3H305.6l7.4,29.8h38.7c8.7,0,15.8,7.1,15.8,15.8c0,8.7-7.1,15.8-15.8,15.8H199.1
		c-8.7,0-15.8-7.1-15.8-15.8c0-8.7,7.1-15.8,15.8-15.8h38.7l7.4-29.8H140.8c-16.2,0-29.3-13.1-29.3-29.3V170.4
		c0-16.2,13.1-29.3,29.3-29.3H410c16.2,0,29.3,13.1,29.3,29.3V342.3z"/>
</g>
</svg>
