<?xml version="1.0" encoding="utf-8"?>
<!-- Generator: Adobe Illustrator 23.0.1, SVG Export Plug-In . SVG Version: 6.00 Build 0)  -->
<svg version="1.1" id="Camada_1" focusable="false" xmlns="http://www.w3.org/2000/svg" xmlns:xlink="http://www.w3.org/1999/xlink"
	 x="0px" y="0px" viewBox="0 0 550.7 550.7" style="enable-background:new 0 0 550.7 550.7;" xml:space="preserve">
<style type="text/css">
	.st0{fill:url(#SVGID_1_);}
	.st1{fill:url(#SVGID_2_);}
	.st2{fill:#FFFFFF;}
	.st3{fill:url(#SVGID_3_);}
	.st4{fill:url(#SVGID_4_);}
	.st5{fill:url(#SVGID_5_);}
</style>
<linearGradient id="SVGID_1_" gradientUnits="userSpaceOnUse" x1="470.0905" y1="470.0905" x2="80.6548" y2="80.6548">
	<stop  offset="0" style="stop-color:#16AE8F"/>
	<stop  offset="1" style="stop-color:#07FBC8"/>
</linearGradient>
<path class="st0" d="M275.4,0C123.3,0,0,123.3,0,275.4s123.3,275.4,275.4,275.4s275.4-123.3,275.4-275.4S427.5,0,275.4,0z
	 M203,437.8c-14.1,0-24.5-10.6-24.4-25.1c0.1-14,10.5-24,24.6-24c14,0.1,24.1,10.5,24.1,24.6C227.2,427.3,216.8,437.8,203,437.8z
	 M348.8,437.8c-13.8-0.2-24.1-10.7-24-24.7c0-14.1,10.2-24.3,24.3-24.3c14.1,0,24.4,10.2,24.4,24.2
	C373.5,427.3,362.9,437.9,348.8,437.8z M420.1,222.1c-0.3,0.6-0.9,1.1-1,1.7c-3.8,21.9-7.7,51.8-11.3,73.7
	c-2.5,14.8-6.4,18.4-21.3,18.4c-58.8,0-117.6,0-176.4,0c-2.7,0-5.4,0-8.5,0c-1.3,7.4-2.4,20.2-3.7,27.6c3.9,0,6.6,0,9.3,0
	c56.7,0,113.5,0,170.2,0c10.3,0,16.9,6.4,16.9,15.9c0,9.2-6.5,15.9-16.2,15.9c-66.4,0.1-132.8,0.1-199.2,0
	c-10.6,0-17.9-8.9-16.2-19.4c0.8-5.4,2.2-10.8,3-16.2c1.7-12.2,4.8-30.5,4.5-42.6c-0.6-19.9-3.5-47.7-5.4-67.6
	c-1.9-19.2-4-38.3-5.7-57.5c-0.5-5.3-2.3-8-7.7-9.3c-8.7-2.1-17-5.6-25.6-7.8c-7.4-1.9-12.8-5.7-15.8-12.7c0-2.8,0-5.5,0-8.3
	c6.3-11.2,12.5-13.7,25-9.8c13.8,4.3,27.5,8.8,41.3,13.1c7.7,2.4,11.8,7.4,12.7,15.3c0.9,8.3,2,16.7,3,25
	c25.6,2.9,50.4,5.8,75.2,8.6c44.7,5,89.3,10.2,134,14.8c9.3,1,15.5,4.5,19.1,13C420.1,216.6,420.1,219.3,420.1,222.1z"/>
</svg>
