<?xml version="1.0" encoding="utf-8"?>
<!-- Generator: Adobe Illustrator 23.0.1, SVG Export Plug-In . SVG Version: 6.00 Build 0)  -->
<svg version="1.1" id="Camada_1" focusable="false" xmlns="http://www.w3.org/2000/svg" xmlns:xlink="http://www.w3.org/1999/xlink"
	 x="0px" y="0px" viewBox="0 0 550.7 550.7" style="enable-background:new 0 0 550.7 550.7;" xml:space="preserve">
<style type="text/css">
	.st0{fill:url(#SVGID_1_);}
	.st1{fill:url(#SVGID_2_);}
	.st2{fill:#FFFFFF;}
	.st3{fill:url(#SVGID_3_);}
	.st4{fill:url(#SVGID_4_);}
	.st5{fill:url(#SVGID_5_);}
</style>
<g>
	<linearGradient id="SVGID_1_" gradientUnits="userSpaceOnUse" x1="306.4749" y1="381.8472" x2="244.2674" y2="319.6397">
		<stop  offset="1.118836e-07" style="stop-color:#16AE8F"/>
		<stop  offset="1" style="stop-color:#00E2B4"/>
	</linearGradient>
	<path class="st0" d="M276,299.7c-12-0.3-22.8,7.5-26.2,19c-3.2,11,0.4,23.9,11.5,30.3c2.1,1.2,2.7,2.3,2.3,4.7
		c-2,12.8-3.8,25.7-5.5,38.6c-0.5,3.7,0.3,4.6,4,4.6c4.4,0,8.9,0,13.3,0c4.3,0,8.7,0,13,0c4.2,0,4.9-0.7,4.3-4.8
		c-1.8-12.9-3.6-25.7-5.6-38.6c-0.3-2,0.1-3.2,2-4.3c10.3-6.2,15.1-18.1,12.2-29.4C298.2,308,288,299.9,276,299.7z"/>
	<linearGradient id="SVGID_2_" gradientUnits="userSpaceOnUse" x1="470.0905" y1="470.0905" x2="80.6548" y2="80.6548">
		<stop  offset="0" style="stop-color:#16AE8F"/>
		<stop  offset="1" style="stop-color:#07FBC8"/>
	</linearGradient>
	<path class="st1" d="M275.4,0C123.3,0,0,123.3,0,275.4s123.3,275.4,275.4,275.4s275.4-123.3,275.4-275.4S427.5,0,275.4,0z
		 M189.7,177.1c0.2-30.1,12.9-53.9,37.4-71.1c14.6-10.2,31.2-14.5,49.1-14.4c28.7,0.2,51.4,12.1,68.5,34.8
		c10.9,14.4,16.2,31,16.3,49.1c0.1,9.7-0.1,19.4-0.2,29c0,4-2.8,7-6.7,7.1c-8.5,0.2-17.1,0.4-25.6,0.3c-4.8,0-7.8-3.4-7.9-8.5
		c-0.1-8.7-0.2-17.3-0.2-26c0-26-19.4-45.4-45.3-45.4c-25.6,0-44.9,19.6-44.9,45.5c0,19.7,0,39.3,0,59c0,1.2,0,2.4,0,3.5
		c-13.7,3.1-26.9,6.2-40.6,9.4c0-1.1,0-2.3,0-3.4C189.7,223.1,189.5,200.1,189.7,177.1z M383.3,416.5c-0.2,14.7-11.2,25.8-26,25.9
		c-27.3,0.1-54.7,0-82,0c-26.8,0-53.7,0-80.5,0c-16.7,0-27.4-10.8-27.4-27.5c0-41.2,0-82.3,0-123.5c0-10.8,5.1-18.1,15.2-21.5
		c32.2-10.9,65.2-16.9,99.2-16c30.1,0.8,59.2,6.7,87.6,16.5c8.6,2.9,13.7,10.9,13.8,20.4c0,37.2,0,74.4,0,111.7
		C383.3,407.2,383.4,411.8,383.3,416.5z"/>
</g>
</svg>
