<?xml version="1.0" encoding="utf-8"?>
<!-- Generator: Adobe Illustrator 23.0.1, SVG Export Plug-In . SVG Version: 6.00 Build 0)  -->
<svg version="1.1" id="Camada_1" xmlns="http://www.w3.org/2000/svg" xmlns:xlink="http://www.w3.org/1999/xlink" x="0px" y="0px"
	 viewBox="0 0 200.8 47" style="enable-background:new 0 0 200.8 47;" xml:space="preserve">
<style type="text/css">
	.st0{fill:#07FBC8;}
</style>
<g>
	<g>
		<path class="st0" d="M4.1,23.7c0-5.7,0-11.3,0-17c0-0.4,0-0.7,0-1.2s0.2-0.9,0.4-1.3C4.5,4,4.7,3.9,4.9,3.6
			c0.6-0.8,1.5-1.2,2.6-1.3c0.5,0,0.9,0,1.4,0c7,0,13.9,0,20.9,0c0.6,0,1.2,0,1.8,0c0.7,0,1.5,0.1,2.2,0.2c0.9,0.2,1.9,0.5,2.7,0.8
			c0.6,0.2,1.2,0.6,1.8,0.9c0.5,0.4,1.1,0.6,1.5,0.9c0.2,0.2,0.6,0.4,0.8,0.6c0.8,0.7,1.7,1.5,2.2,2.4c0.5,0.7,0.9,1.4,1.4,2.1
			c0.6,1.1,0.9,2.1,1.3,3.3c0.1,0.6,0.2,1.3,0.4,1.9c0.1,1.2,0.1,2.4,0,3.5c-0.1,0.8-0.2,1.7-0.6,2.5c-0.2,0.7-0.6,1.5-0.9,2.2
			c-0.2,0.5-0.5,0.8-0.7,1.3c-0.2,0.4-0.5,0.7-0.7,1.1c-0.7,0.9-1.5,1.8-2.5,2.5c-0.6,0.5-1.1,0.9-1.8,1.2c-0.5,0.2-0.8,0.5-1.3,0.7
			c-0.6,0.2-1.1,0.5-1.7,0.7c-0.7,0.2-1.5,0.5-2.2,0.6c-0.4,0.1-0.8,0.1-1.2,0.1c-1.5,0.1-3.1,0.1-4.6-0.2c-1.2-0.2-2.4-0.6-3.4-1.2
			c-0.5-0.2-1.1-0.5-1.5-0.8c-0.5-0.4-0.9-0.6-1.4-0.9c-0.4-0.4-0.7-0.6-1.2-0.9c-0.1-0.1-0.1-0.1-0.2-0.2c-0.1-0.1-0.1-0.1-0.2-0.2
			c-0.1,0-0.1-0.1-0.2,0c0,0-0.1,0.1-0.1,0.2c0,0.4,0,0.7,0,1.1c0,1.7,0,3.4,0,5.1c0,0.7-0.1,1.3-0.6,1.9c-0.7,0.8-1.5,1.3-2.6,1.2
			c-1.1-0.1-1.9-0.7-2.5-1.7c-0.2-0.5-0.4-0.9-0.4-1.4c0-2,0-4,0-5.9c0-1.7,0-3.3,0-4.8c0-1.9,0-3.9,0-5.8c0-0.6,0.1-0.6,0.6-0.6
			s0.9,0,1.4,0c5,0,9.9,0,14.9,0c0.4,0,0.7,0,0.9,0c0.5,0,0.9,0.4,1.3,0.6c0.6,0.4,0.9,0.9,1.1,1.7c0.2,0.8,0.1,1.5-0.4,2.4
			c-0.5,0.8-1.2,1.3-2.1,1.4c-0.2,0-0.5,0-0.7,0c-1.9,0-3.8,0-5.5,0c-0.2,0-0.6,0-0.8,0c-0.1,0-0.1,0-0.2,0c-0.1,0-0.2,0.1-0.1,0.2
			c0,0.1,0.1,0.1,0.1,0.2c0.5,0.5,0.9,0.8,1.4,1.3c0.5,0.4,0.9,0.7,1.5,0.9c1.3,0.7,2.7,0.9,4.2,0.8c0.6,0,1.2-0.1,1.8-0.2
			c0.6-0.1,1.2-0.4,1.8-0.6c0.9-0.5,1.8-0.9,2.5-1.8c0.6-0.6,1.1-1.2,1.4-1.9c0.5-0.7,0.7-1.4,0.9-2.2c0.2-1.2,0.4-2.4,0.1-3.5
			c-0.1-0.8-0.4-1.5-0.6-2.2c-0.1-0.5-0.4-0.8-0.6-1.2c-0.5-0.8-1.2-1.5-1.9-2.2c-0.5-0.4-1.1-0.7-1.5-1.1c-0.6-0.4-1.3-0.6-1.9-0.7
			c-0.9-0.2-1.8-0.4-2.7-0.4c-6.3,0-12.5,0-18.8,0c-0.4,0-0.7,0-1.1,0c-0.4,0-0.5,0.1-0.5,0.5c0,2.8,0,5.8,0,8.6
			c0,6.4,0,12.7,0,19.1c0,0.6,0,1.1,0,1.7c0,0.4,0.1,0.5,0.5,0.5c2.4,0,4.8,0,7.2,0c0.5,0,1.1,0,1.5,0c0.6,0,1.1,0.2,1.5,0.6
			c0.2,0.2,0.5,0.5,0.7,0.8c0.4,0.5,0.4,0.9,0.4,1.4c0.1,0.9-0.4,1.8-1.1,2.5c-0.6,0.5-1.3,0.7-2.1,0.7s-1.7,0-2.5,0c-2.9,0-6,0-9,0
			c-0.1,0-0.4,0-0.5,0c-0.5,0-0.8-0.1-1.2-0.4c-0.5-0.2-0.8-0.7-1.2-1.2C4.1,42.5,4,42.2,4,41.7c0-0.2,0-0.6,0-0.8
			C4.1,35.2,4.1,29.5,4.1,23.7L4.1,23.7z"/>
		<g>
			<path class="st0" d="M81.7,16.6c0-3.5,0-7.1,0-10.6c0-0.6,0-1.2,0-1.8c0-0.2,0-0.5,0-0.7c0.1-0.4,0.2-0.6,0.6-0.7
				c0.4-0.1,0.7-0.2,1.1-0.1c0.1,0,0.1,0,0.2,0c3.5,0,7,0,10.5,0c0.9,0,2,0.1,2.9,0.2C97.4,3,97.6,3,98,3c0.1,0,0.2,0.1,0.5,0.1
				c0.1,0,0.1,0.1,0.2,0.1c0.7,0.1,1.4,0.5,2,0.8c0.4,0.1,0.6,0.4,0.9,0.6c0.2,0.1,0.4,0.2,0.5,0.5l0.1,0.1c0.6,0.5,0.9,1.1,1.3,1.7
				c0.4,0.5,0.5,1.1,0.7,1.7c0.1,0.2,0.1,0.6,0.2,0.8c0.1,0.4,0.1,0.7,0.2,1.1c0.1,0.6,0.1,1.2,0,1.8c0,0.6-0.1,1.3-0.2,1.9
				c0,0.1,0,0.1,0,0.2c-0.1,0.2-0.2,0.6-0.2,0.8c-0.2,0.6-0.5,1.1-0.8,1.5l-0.1,0.1c-0.2,0.5-0.7,0.8-1.1,1.3
				c-0.5,0.5-0.9,0.9-1.7,1.2c-0.1,0-0.2,0.1-0.4,0.2s-0.1,0.2-0.1,0.5c0,0,0,0.1,0.1,0.1c0.2,0.5,0.5,0.9,0.7,1.4
				c0.1,0.1,0.2,0.2,0.2,0.4c0.1,0.6,0.6,0.9,0.8,1.5c0.2,0.6,0.6,1.3,0.9,1.9c0,0.1,0.1,0.2,0.1,0.4c0,0.1,0.1,0.2,0.1,0.2
				c0.1,0.5,0.4,0.8,0.6,1.2c0.4,0.6,0.5,1.2,0.9,1.7c0.1,0.1,0.1,0.2,0.2,0.5c0.2,0.6-0.1,1.2-0.8,1.2c-1.9,0-3.8,0-5.7,0
				c-0.6,0-1.1-0.4-1.3-0.8c-0.4-0.5-0.6-1.1-0.8-1.5c-0.2-0.5-0.6-0.9-0.8-1.5c0,0-0.1-0.1-0.1-0.2c-0.1-0.4-0.2-0.6-0.4-0.8
				c-0.2-0.4-0.4-0.7-0.6-1.1s-0.4-0.7-0.5-1.1c0-0.1-0.1-0.2-0.1-0.4c-0.2-0.4-0.4-0.7-0.6-1.1c-0.1-0.2-0.4-0.6-0.5-0.8
				c-0.1-0.1-0.2-0.2-0.5-0.2c-0.8,0-1.8,0-2.6,0c-0.1,0-0.1,0-0.2,0c-0.1,0-0.2,0.1-0.2,0.2c0,0.1,0,0.2,0,0.5c0,2.5,0,5,0,7.3
				c0,0.4-0.1,0.6-0.2,0.9c-0.1,0.2-0.2,0.4-0.5,0.4c-0.1,0-0.2,0-0.4,0c-1.7,0-3.3,0-5,0c-0.1,0-0.1,0-0.2,0
				c-0.6,0.1-1.1-0.4-1.2-0.9c0-0.1,0-0.2,0-0.4C81.7,25,81.7,20.7,81.7,16.6L81.7,16.6z M89.1,11.8L89.1,11.8c0,0.8,0,1.7,0,2.4
				c0,0.4,0.1,0.5,0.5,0.5h0.1c0.9,0,2,0,2.9,0c0.8,0,1.7-0.1,2.5-0.1c0.2,0,0.5-0.1,0.7-0.2c0.1-0.1,0.4-0.2,0.5-0.2
				c0.4-0.1,0.6-0.5,0.7-0.8c0.2-0.5,0.2-1.1,0.2-1.5c0-0.5-0.1-1.1-0.5-1.4c-0.4-0.5-0.7-0.8-1.2-0.9c-0.1,0-0.2-0.1-0.4-0.1
				S95,9,94.9,9c-0.4,0-0.8-0.1-1.2-0.1c-1.4,0-2.8,0-4.2,0C89.1,8.9,89,9,89,9.4c0,0.1,0,0.1,0,0.2C89.1,10.2,89.1,11.1,89.1,11.8z
				"/>
			<path class="st0" d="M108.2,16.5c0-1.2,0-2.5,0.1-3.7c0-1.1,0.2-2,0.6-2.9c0.2-0.7,0.5-1.3,0.8-1.9c0.4-0.6,0.8-1.3,1.3-1.9
				c0.2-0.2,0.6-0.6,0.8-0.8C112,5.2,112,5,112.1,5c0.2-0.1,0.5-0.4,0.6-0.5c0.5-0.2,0.8-0.5,1.3-0.7c0.1-0.1,0.4-0.2,0.5-0.2
				c0.5-0.2,0.9-0.5,1.5-0.6c0.9-0.2,1.9-0.5,2.8-0.6c0.9-0.1,2-0.1,2.9,0c1.1,0,2.1,0.2,3.2,0.6c0,0,0,0,0.1,0
				c0.7,0.1,1.3,0.4,1.9,0.7c0.5,0.2,1.1,0.5,1.5,0.9c0,0,0,0,0.1,0c0.7,0.4,1.2,0.9,1.7,1.4c0.1,0.1,0.2,0.2,0.4,0.5
				c0.2,0.2,0.4,0.5,0.6,0.7c0.1,0.1,0.2,0.2,0.2,0.4c0.2,0.4,0.4,0.6,0.6,0.9c0.1,0.4,0.4,0.7,0.5,1.1c0.2,0.7,0.5,1.4,0.6,2.1
				c0.1,0.5,0.1,0.9,0.1,1.4c0,1.7,0.1,3.3,0,5c0,1.1-0.1,2-0.1,3.1c0,0.4-0.1,0.7-0.2,1.1c0,0.2-0.1,0.5-0.1,0.7
				c0,0.4-0.1,0.6-0.4,0.8c-0.1,0.1-0.1,0.2-0.1,0.2c-0.1,0.4-0.2,0.7-0.5,1.1c-0.4,0.6-0.7,1.2-1.1,1.7c-0.6,0.6-1.1,1.2-1.8,1.7
				c-0.5,0.4-0.9,0.6-1.4,0.9l-0.1,0.1c-0.7,0.2-1.3,0.6-2,0.8c-0.1,0-0.1,0-0.2,0c-1.1,0.1-2,0.5-3.1,0.5c-0.6,0-1.2,0-1.8,0
				c-1.2,0-2.4-0.1-3.4-0.4c-0.4-0.1-0.8-0.2-1.2-0.4c-0.1,0-0.2-0.1-0.4-0.1c-0.7-0.4-1.4-0.7-2.1-1.1c-0.6-0.4-1.1-0.7-1.5-1.2
				c-0.1-0.1-0.4-0.4-0.5-0.5c-0.1-0.1-0.2-0.2-0.4-0.4l-0.1-0.1c-0.5-0.4-0.7-0.9-0.9-1.4c-0.2-0.2-0.4-0.6-0.5-0.8
				c-0.1-0.2-0.2-0.6-0.4-0.8c-0.2-0.7-0.5-1.4-0.6-2.1c-0.1-0.7-0.1-1.5-0.1-2.2C108.4,18.2,108.4,17.4,108.2,16.5
				C108.4,16.5,108.4,16.5,108.2,16.5z M125.9,17.4c0,0,0-0.1,0-0.2c0-0.9,0-2-0.1-2.9c0-0.6-0.1-1.1-0.1-1.7
				c-0.1-0.5-0.1-0.9-0.4-1.4c-0.2-0.4-0.4-0.6-0.6-0.9c-0.4-0.5-0.8-0.8-1.3-1.1c-0.4-0.2-0.8-0.4-1.3-0.5c-0.7-0.1-1.5-0.1-2.2,0
				c-0.4,0-0.7,0.1-0.9,0.2c-0.7,0.4-1.5,0.7-2,1.4c-0.5,0.4-0.6,0.8-0.7,1.3c-0.1,0.4-0.2,0.8-0.2,1.3c-0.1,0.6-0.1,1.2-0.1,1.9
				c0,1.5,0,3.1,0,4.6c0,0.4,0,0.6,0.1,0.9c0.1,0.6,0.2,1.2,0.6,1.8c0.2,0.6,0.7,0.9,1.1,1.4l0,0c0.7,0.6,1.5,0.8,2.5,0.9
				c0.6,0,1.1,0,1.7,0c0.9,0,1.8-0.5,2.5-0.9c0.1-0.1,0.1-0.1,0.2-0.2c0.1-0.1,0.2-0.2,0.4-0.4c0.5-0.6,0.7-1.2,0.9-1.9
				c0-0.1,0.1-0.2,0.1-0.4c0-0.1,0.1-0.4,0.1-0.5C125.8,19.2,125.8,18.4,125.9,17.4z"/>
			<path class="st0" d="M61.9,25.6c0,1.2,0,2.4,0,3.5c0,0.4-0.1,0.7-0.4,1.1c-0.1,0.1-0.2,0.2-0.4,0.2s-0.2,0-0.5,0
				c-1.7,0-3.3,0-5,0c-0.1,0-0.1,0-0.2,0c-0.6,0.1-1.1-0.4-1.2-1.1c0-0.2,0-0.4,0-0.6c0-6,0-12,0-18c0-2.2,0-4.5,0-6.7
				c0-0.1,0-0.4,0-0.5c0.2-0.4,0.5-0.6,0.8-0.7c0.4-0.1,0.7-0.2,1.1-0.1c0.1,0,0.2,0,0.4,0c3.8,0,7.4,0,11.2,0
				c0.7,0,1.5,0.1,2.2,0.2c0.2,0,0.4,0.1,0.6,0.1c0.9,0.1,1.9,0.5,2.8,0.9C74,4.2,74.4,4.6,75,4.9c0,0,0.2,0.2,0.4,0.4
				C76,5.9,76.6,6.7,77,7.6c0.1,0.1,0.1,0.4,0.2,0.5c0,0.1,0,0.2,0.1,0.2c0.2,0.2,0.2,0.6,0.4,0.9c0.4,1.5,0.4,3.1,0.2,4.6
				c0,0.5-0.1,0.9-0.4,1.4c-0.1,0.2-0.2,0.6-0.4,0.8c-0.1,0.2-0.2,0.5-0.4,0.7L76.7,17c-0.2,0.5-0.5,0.8-0.8,1.2
				c-0.4,0.5-0.8,0.8-1.3,1.2c-0.1,0.1-0.2,0.2-0.4,0.2c-0.2,0.1-0.4,0.2-0.6,0.4c-0.2,0.1-0.4,0.1-0.6,0.2
				c-0.4,0.2-0.7,0.4-1.1,0.5c-0.9,0.2-1.9,0.5-2.9,0.6c-0.4,0-0.8,0.1-1.2,0.1c-1.8,0-3.5,0-5.3,0c-0.4,0-0.5,0.1-0.5,0.5
				C62,23.1,62,24.4,61.9,25.6C62,25.6,61.9,25.6,61.9,25.6z M64.9,8.8C64.9,8.9,64.9,8.9,64.9,8.8c-0.5,0-0.8,0-1.3,0
				c-0.5,0-0.9,0-1.4,0c-0.2,0-0.4,0.1-0.4,0.4v0.1c0,1.7,0,3.3,0,5c0,0.1,0,0.1,0,0.2c0,0.4,0.1,0.5,0.6,0.5c1.5,0,2.9,0,4.5,0
				c0.7,0,1.4-0.1,2-0.4c0.6-0.2,1.1-0.6,1.3-1.2c0.1-0.2,0.1-0.5,0.2-0.7c0.1-0.6,0.1-1.1,0-1.7c-0.1-0.5-0.4-0.8-0.6-1.1
				C69.3,9.4,68.5,9,67.7,9C66.7,8.9,65.8,8.9,64.9,8.8z"/>
			<path class="st0" d="M137.8,17.3c0-3.8,0-7.5,0-11.2c0-0.8,0-1.5,0-2.4c0-0.6,0.4-0.9,0.9-0.9c0.8,0,1.5,0,2.4,0
				c4.7,0,9.4,0,14,0c0.4,0,0.7,0,0.9,0c0.4,0,0.8,0,1.2,0.1c0.6,0.1,0.8,0.5,0.8,1.1c0,0.5,0,1.1,0,1.5c0,0.8,0,1.8,0,2.6
				c0,0.2,0,0.5-0.2,0.7c-0.2,0.2-0.6,0.5-0.9,0.5c-0.1,0-0.4,0-0.5,0c-3.2,0-6.4,0-9.7,0c-0.1,0-0.2,0-0.4,0c-0.1,0-0.4,0-0.5,0
				c-0.1,0-0.2,0-0.2,0c-0.4,0-0.5,0.1-0.6,0.5c0,0.1,0,0.4,0,0.5c0,0.2,0,0.4,0,0.6c0,0.8,0,1.7,0,2.5c0,0.4,0,0.6,0,0.9
				c0,0.2,0.1,0.5,0.5,0.5s0.6,0,0.9,0c0.2,0,0.4,0,0.6,0c2.6,0,5.3,0,7.9,0c0.5,0,0.8,0,1.3,0c0.7,0,0.9,0.4,0.9,0.9
				c0,0.6,0,1.3,0,1.9c0,0.5,0,0.8,0,1.3c0,0.4,0,0.7,0,1.1c0,0.6-0.4,0.9-1.1,0.9c-0.4,0-0.7,0-0.9,0c-2.9,0-5.9,0-8.8,0
				c-0.1,0-0.2,0-0.4,0c-0.1,0-0.2,0-0.5,0s-0.4,0.1-0.4,0.4c0,0.4,0,0.6,0,0.9c0,2.4,0,4.7,0,7.1c0,0.4-0.1,0.6-0.2,0.9
				c-0.1,0.2-0.5,0.4-0.7,0.4c-0.5,0-1.1,0-1.5,0c-1.3,0-2.5,0-3.8,0c-0.5,0-0.7-0.1-0.9-0.6c-0.1-0.2-0.1-0.5-0.1-0.7
				C137.8,25.1,137.8,21.2,137.8,17.3L137.8,17.3z"/>
			<path class="st0" d="M184.3,2.7c3.4,0,6.7,0,10.1,0c0.4,0,0.8,0,1.2,0c0.6,0.1,0.9,0.4,1.1,0.9c0.1,0.4,0,0.7,0.1,1.1
				c0,0.9,0,1.8,0,2.7c0,0.2,0,0.5,0,0.7c0,0.6-0.5,0.9-0.9,0.9c-0.4,0-0.6,0-0.9,0c-0.1,0-0.2,0-0.4,0c-1.8,0-3.5,0-5.3,0
				c-0.4,0-0.4,0.1-0.5,0.4c0,0.4,0,0.8,0,1.2c0,5.9,0,11.8,0,17.8c0,0.2,0,0.5,0,0.7c0,0.4-0.1,0.7-0.4,0.9
				c-0.1,0.1-0.2,0.2-0.5,0.2c-0.1,0-0.2,0-0.4,0c-1.7,0-3.3,0-5,0c-0.1,0-0.1,0-0.2,0c-0.7,0-1.1-0.6-1.1-1.1c0-0.4,0-0.8,0-1.2
				c0-5.4,0-10.9,0-16.2c0-0.8,0-1.7,0-2.4c0-0.4-0.1-0.5-0.5-0.5c-2.1,0-4.2,0-6.5,0c-0.1,0-0.2,0-0.4,0h-0.1
				c-0.4-0.2-0.7-0.5-0.7-1.1c0-0.7,0-1.4,0-2.1c0-0.6,0-1.2,0-1.8c0-0.5,0.2-0.9,0.5-1.3c0.1-0.1,0.4-0.1,0.5-0.1
				c0.6,0,1.1,0,1.7,0C178.7,2.7,181.5,2.7,184.3,2.7L184.3,2.7z"/>
			<path class="st0" d="M162.4,17.1c0-3.7,0-7.2,0-10.9c0-0.8,0-1.7,0-2.5c0-0.4,0.6-0.9,1.1-0.9c0.4,0,0.7,0,1.1,0
				c0.9,0,1.9,0,2.8,0c0.5,0,0.9,0,1.4,0s0.9,0.4,0.9,0.8c0.1,0.5,0.1,0.9,0.1,1.5c0,0.2,0,0.4,0,0.6c0,7.8,0,15.5,0,23.2
				c0,0.1,0,0.4,0,0.5c0,0.2-0.1,0.5-0.1,0.6c-0.1,0.2-0.2,0.4-0.5,0.5c-0.2,0-0.4,0-0.6,0c-1.7,0-3.3,0-5,0c-0.8,0-1.2-0.6-1.2-1.3
				C162.4,25.1,162.4,21.1,162.4,17.1L162.4,17.1z"/>
		</g>
		<path class="st0" d="M186.2,40.2c0,1.2,0,2.4,0,3.5c0,0.1,0,0.1,0,0.2c0,0.4-0.1,0.5-0.5,0.5c-0.4,0-0.7,0-1.1,0
			c-0.2,0-0.5-0.1-0.6-0.4c-0.4-0.5-0.6-0.8-0.9-1.3c-0.5-0.6-0.8-1.3-1.3-2c0-0.1-0.1-0.2-0.2-0.2c-0.1-0.1-0.2-0.1-0.2,0.1
			c0,0.1,0,0.2,0,0.4c0,0.8,0,1.8,0,2.6c0,0.1,0,0.2,0,0.5c0,0.4-0.2,0.5-0.5,0.5c-0.2,0-0.5,0-0.6,0c-0.2,0-0.4,0-0.6,0
			c-0.4,0-0.5-0.1-0.6-0.5c0-0.1,0-0.2,0-0.4c0-2.2,0-4.4,0-6.6c0-0.2,0-0.4,0-0.6c0-0.4,0.2-0.5,0.6-0.6c0.4,0,0.7,0,1.1,0
			c0.2,0,0.5,0.2,0.7,0.5c0.5,0.7,1.1,1.5,1.5,2.2c0.2,0.4,0.5,0.6,0.7,0.9l0.1,0.1c0.1,0.1,0.2,0,0.2-0.1v-0.1c0-0.4,0-0.7,0-1.2
			v-0.1c0-0.6,0-1.1,0-1.7c0-0.1,0-0.1,0-0.2c0-0.4,0.2-0.5,0.6-0.5c0.5,0,0.9,0,1.3,0c0.2,0,0.4,0.1,0.4,0.4c0,0.1,0,0.2,0,0.4
			C186.2,37.8,186.2,39,186.2,40.2L186.2,40.2z"/>
		<path class="st0" d="M159.1,40.2c0,1.2,0,2.4,0,3.5c0,0.1,0,0.1,0,0.2c0,0.4-0.2,0.5-0.5,0.5c-0.4,0-0.7,0-0.9,0
			c-0.2,0-0.5-0.1-0.7-0.4c-0.2-0.5-0.6-0.8-0.8-1.3c-0.4-0.6-0.8-1.2-1.2-1.8c-0.1-0.1-0.1-0.2-0.2-0.4c-0.1-0.1-0.1-0.2-0.2-0.2
			s-0.1,0.2-0.1,0.2c0,0.2,0,0.5,0,0.7c0,0.7,0,1.4,0,2.1c0,0.1,0,0.2,0,0.5c0,0.2-0.2,0.4-0.5,0.4c-0.5,0-0.9,0-1.4,0
			c-0.2,0-0.4-0.1-0.4-0.4c0-0.1,0-0.2,0-0.5c0-1.5,0-2.9,0-4.5c0-0.8,0-1.7,0-2.5c0-0.6,0.1-0.7,0.7-0.7c0.2,0,0.4,0,0.6,0
			c0.5,0,0.8,0.2,1.1,0.6c0.6,0.8,1.1,1.7,1.7,2.5c0.1,0.2,0.4,0.5,0.5,0.7l0.1,0.1c0.1,0.1,0.2,0,0.2-0.1v-0.1c0-0.4,0-0.6,0-0.9
			c0-0.2,0-0.4,0-0.6c0-0.4,0-0.7,0-1.1c0-0.2,0-0.4,0-0.6c0-0.4,0.2-0.5,0.6-0.6c0.1,0,0.4,0,0.5,0c0.2,0,0.5,0,0.8,0
			c0.2,0,0.4,0.1,0.4,0.2c0,0.1,0,0.2,0,0.4C159.1,37.8,159.1,39,159.1,40.2L159.1,40.2z"/>
		<path class="st0" d="M66.1,40.2c0-1.2,0-2.4,0-3.5c0-0.1,0-0.2,0-0.4c0-0.2,0.2-0.2,0.4-0.4c0.1,0,0.1,0,0.2,0c1.1,0,2.1,0,3.2,0
			c0.6,0,1.1,0.1,1.7,0.2c0.8,0.4,1.4,0.9,1.5,1.9c0,0.2,0,0.6,0,0.8c0,0.8-0.4,1.4-0.9,1.9c-0.4,0.4-0.4,0.4-0.1,0.8
			c0.4,0.7,0.7,1.3,1.1,2c0,0.1,0.1,0.1,0.1,0.2c0,0.2,0,0.4-0.2,0.5c-0.1,0-0.1,0-0.2,0c-0.4,0-0.8,0-1.2,0c-0.2,0-0.5-0.1-0.6-0.4
			c-0.2-0.5-0.5-0.8-0.7-1.3c-0.1-0.4-0.4-0.6-0.5-0.9c-0.1-0.2-0.4-0.4-0.6-0.4c-0.1,0-0.2,0-0.4,0c-0.2,0-0.4,0.1-0.4,0.4
			c0,0.1,0,0.2,0,0.4c0,0.5,0,1.1,0,1.5v0.1c0,0.4-0.2,0.5-0.6,0.5c-0.4,0-0.8,0-1.2,0c-0.4,0-0.5-0.1-0.5-0.5c0-0.1,0-0.2,0-0.2
			C66.1,42.5,66.1,41.4,66.1,40.2L66.1,40.2z M69.4,39.6L69.4,39.6c0.2,0,0.6,0,0.8-0.1c0.4-0.1,0.6-0.4,0.7-0.7
			c0.1-0.5-0.2-0.9-0.8-0.9c-0.5,0-0.9,0-1.4,0c-0.2,0-0.4,0.1-0.4,0.4c0,0.4,0,0.7,0,1.1c0,0.2,0.1,0.4,0.4,0.4
			C69,39.6,69.2,39.6,69.4,39.6z"/>
		<path class="st0" d="M87.1,40.2c0-1.2,0-2.4,0-3.5c0-0.1,0-0.1,0-0.2c0-0.2,0.1-0.4,0.4-0.4c0.1,0,0.2,0,0.4,0c0.9,0,1.9,0,2.9,0
			c0.7,0,1.5,0.1,2.1,0.6c0.8,0.6,1.4,1.3,1.5,2.4c0.1,0.9,0.1,1.9,0,2.8c-0.2,1.1-0.8,1.9-1.8,2.4c-0.6,0.2-1.2,0.5-1.8,0.5
			c-1.1,0-2,0-3.1,0c-0.1,0-0.2,0-0.2,0c-0.2,0-0.4-0.1-0.4-0.4c0-0.1,0-0.2,0-0.4C87.1,42.5,87.1,41.4,87.1,40.2L87.1,40.2z
			 M89.4,40.2L89.4,40.2c0,0.6,0,1.2,0,1.7c0,0.1,0,0.1,0,0.2c0,0.2,0.1,0.4,0.4,0.4c0.5,0,0.9,0,1.4-0.1c0.6-0.1,1.1-0.6,1.1-1.3
			c0-0.6,0-1.3,0-1.9c0-0.7-0.5-1.2-1.2-1.3c-0.5,0-0.9,0-1.4,0c-0.2,0-0.2,0.1-0.4,0.4c0,0.1,0,0.1,0,0.2
			C89.4,39,89.4,39.6,89.4,40.2z"/>
		<path class="st0" d="M121.7,40.2c0,0.6,0,1.2-0.1,1.8c-0.2,0.9-0.8,1.7-1.7,2.1c-1.2,0.6-2.4,0.6-3.7,0.1
			c-0.7-0.2-1.3-0.7-1.8-1.4c-0.2-0.4-0.4-0.8-0.4-1.3c-0.1-0.8-0.1-1.8,0-2.6c0.1-1.2,0.7-2,1.8-2.6c0.8-0.4,1.7-0.5,2.6-0.4
			c0.7,0.1,1.3,0.4,1.8,0.7c0.6,0.5,0.9,1.1,1.2,1.8c0.1,0.4,0.1,0.8,0.1,1.3C121.7,39.8,121.7,40,121.7,40.2z M119.4,40.1
			c0-0.4,0-0.7,0-1.1c0-0.4-0.2-0.7-0.6-0.9c-0.4-0.2-0.8-0.4-1.3-0.2c-0.6,0.1-1.1,0.5-1.1,1.2c0,0.8,0,1.5,0,2.4
			c0,0.2,0.1,0.5,0.2,0.7c0.4,0.5,0.8,0.6,1.4,0.6c0.7,0,1.3-0.7,1.3-1.3C119.4,40.9,119.4,40.5,119.4,40.1z"/>
		<path class="st0" d="M140.6,40.1c0-0.6,0-1.1,0.1-1.7c0.2-1.2,0.9-2,2.1-2.4c0.9-0.4,2-0.4,3.1-0.1c0.8,0.2,1.5,0.8,1.9,1.5
			c0.2,0.4,0.4,0.8,0.4,1.2c0.1,0.9,0.1,1.9,0,2.8c-0.1,0.7-0.4,1.4-0.9,1.9c-0.6,0.6-1.4,0.9-2.2,0.9c-0.7,0.1-1.4,0-2-0.2
			c-1.3-0.6-2.1-1.5-2.2-3.1C140.7,40.9,140.7,40.4,140.6,40.1C140.7,40.1,140.6,40.1,140.6,40.1z M146,40.1c0-0.4,0-0.7-0.1-1.2
			c0-0.4-0.2-0.6-0.5-0.8c-0.4-0.4-0.8-0.4-1.3-0.4c-0.7,0.1-1.1,0.5-1.2,1.2c-0.1,0.8-0.1,1.5,0,2.4c0,0.1,0.1,0.4,0.1,0.5
			c0.4,0.6,0.8,0.8,1.5,0.7c0.6,0,1.3-0.6,1.3-1.3C145.9,40.9,146,40.5,146,40.1z"/>
		<path class="st0" d="M131,38.5c-0.1,0-0.4,0-0.5,0c-0.4,0-0.6-0.1-0.8-0.2c-0.5-0.5-1.1-0.5-1.8-0.4c-0.1,0-0.2,0.1-0.4,0.1
			c-0.2,0.2-0.2,0.5,0,0.6c0.2,0.1,0.5,0.2,0.6,0.4c0.4,0.1,0.7,0.1,1.1,0.2c0.5,0.1,0.8,0.2,1.3,0.4c0.6,0.1,1.1,0.5,1.4,0.9
			c0.2,0.2,0.4,0.6,0.4,0.9c0,0.4,0,0.7-0.1,1.1c-0.1,0.5-0.5,0.8-0.8,1.2c-0.9,0.7-2.1,0.9-3.3,0.8c-0.9-0.1-1.7-0.5-2.5-0.9
			c-0.5-0.4-0.7-0.8-0.8-1.3c-0.1-0.4,0-0.5,0.4-0.6c0.1,0,0.1,0,0.2,0c0.4,0,0.7,0,1.1,0c0.2,0,0.5,0.1,0.7,0.2
			c0.1,0.1,0.1,0.1,0.2,0.2c0.4,0.2,0.7,0.4,1.1,0.4c0.2,0,0.6,0,0.8-0.1c0.2,0,0.4-0.1,0.5-0.2c0.2-0.1,0.2-0.4,0-0.6
			c-0.1-0.1-0.2-0.1-0.4-0.2c-0.2-0.1-0.4-0.1-0.6-0.1c-0.6-0.1-1.2-0.2-1.8-0.4s-1.1-0.4-1.5-0.8c-0.1-0.1-0.2-0.2-0.4-0.4
			c-0.5-0.9-0.5-1.9,0.2-2.7c0.2-0.4,0.7-0.7,1.2-0.8c1.3-0.5,2.6-0.5,3.8,0.1c0.7,0.4,1.2,0.8,1.5,1.5c0.2,0.4,0,0.7-0.4,0.7
			C131.5,38.5,131.2,38.5,131,38.5L131,38.5z"/>
		<path class="st0" d="M190.2,40.2c0-1.1,0-2.2,0-3.3c0-0.1,0-0.2,0-0.4c0-0.4,0.2-0.5,0.5-0.5c0.1,0,0.4,0,0.5,0c0.4,0,0.7,0,1.1,0
			c1.2,0,2.4,0,3.5,0c0.7,0,0.8,0.1,0.8,0.8c0,0.2,0,0.4,0,0.6c0,0.4-0.1,0.6-0.6,0.6c-0.7,0-1.4,0-2.1,0c-0.4,0-0.7,0-1.1,0
			c-0.2,0-0.4,0.1-0.4,0.4c0,0.2,0,0.4,0,0.6c0,0.2,0.1,0.4,0.4,0.4c0.2,0,0.5,0,0.8,0c0.6,0,1.3,0,1.9,0c0.5,0,0.7,0.1,0.7,0.6
			c0,0.2,0,0.5,0,0.7c0,0.4-0.2,0.7-0.7,0.6c-0.6,0-1.1,0-1.7,0c-0.4,0-0.7,0-1.1,0c-0.2,0-0.4,0.1-0.4,0.4c0,0.2,0,0.4,0,0.6
			c0,0.2,0.1,0.4,0.4,0.4c0.1,0,0.2,0,0.4,0c0.8,0,1.8,0,2.6,0h0.1c0.5,0,0.6,0.2,0.6,0.6c0,0.2,0,0.5,0,0.7c0,0.5-0.2,0.6-0.7,0.6
			c-0.2,0-0.4,0-0.6,0c-0.8,0-1.5,0-2.4,0c-0.7,0-1.4,0-2.1,0c-0.1,0-0.2,0-0.4,0c-0.2,0-0.4-0.2-0.4-0.4c0-0.2,0-0.5,0-0.7
			C190.2,42.2,190.2,41.3,190.2,40.2L190.2,40.2z"/>
		<path class="st0" d="M77,40.2c0-1.1,0-2.1,0-3.2c0-0.1,0-0.4,0-0.5c0-0.5,0.1-0.6,0.6-0.6s0.9,0,1.4,0c1.2,0,2.4,0,3.5,0
			c0.1,0,0.1,0,0.2,0c0.2,0,0.4,0.1,0.4,0.4c0,0.4,0,0.8,0,1.2c0,0.2-0.1,0.4-0.4,0.4c-0.1,0-0.1,0-0.2,0c-0.9,0-1.9,0-2.8,0h-0.1
			c-0.4,0-0.5,0.1-0.5,0.5c0,0.1,0,0.4,0,0.5c0,0.2,0.1,0.4,0.4,0.4s0.4,0,0.6,0c0.8,0,1.5,0,2.4,0c0.5,0,0.6,0.1,0.6,0.6
			c0,0.2,0,0.5,0,0.7c0,0.5-0.1,0.7-0.6,0.7c-0.4,0-0.7,0-1.1,0c-0.6,0-1.1,0-1.7,0c-0.4,0-0.5,0.1-0.5,0.5c0,0.1,0,0.4,0,0.5
			c0,0.2,0.1,0.4,0.4,0.4c0.1,0,0.4,0,0.5,0c0.9,0,1.8,0,2.7,0c0.4,0,0.6,0.1,0.6,0.6c0,0.2,0,0.5,0,0.7c0,0.1,0,0.2-0.1,0.4
			c0,0.1-0.1,0.2-0.4,0.2c-0.1,0-0.2,0-0.2,0c-1.8,0-3.4,0-5.2,0c-0.1,0-0.2,0-0.4,0c-0.2-0.1-0.2-0.2-0.2-0.5c0-0.8,0-1.8,0-2.6
			C77,40.9,77,40.5,77,40.2L77,40.2z"/>
		<path class="st0" d="M57.3,40.2c0,0.4,0,0.7,0,1.1c0,0.8,0.7,1.2,1.3,1.3c0.7,0.1,1.3-0.1,1.5-0.7c0.2-0.5,0.6-0.6,1.1-0.6
			c0.2,0,0.6,0,0.8,0c0.5,0,0.6,0.2,0.5,0.7c-0.2,0.7-0.6,1.4-1.2,1.8c-0.5,0.2-0.9,0.5-1.4,0.7c-1.3,0.4-2.4,0.1-3.5-0.6
			c-0.9-0.6-1.3-1.5-1.4-2.6c0-0.7,0-1.4,0-2.1c0-1.4,0.9-2.7,2.5-3.1c1.3-0.4,2.6-0.2,3.8,0.6c0.7,0.5,1.1,1.1,1.3,1.8
			c0,0.1,0,0.2,0,0.4c0,0.2-0.1,0.4-0.2,0.4c-0.1,0-0.1,0-0.2,0c-0.5,0-0.9,0-1.3,0c-0.2,0-0.4-0.1-0.5-0.4
			c-0.1-0.1-0.1-0.2-0.2-0.4c-0.2-0.4-0.5-0.5-0.8-0.6c-0.6-0.1-1.1,0-1.5,0.4c-0.2,0.2-0.4,0.5-0.4,0.7
			C57.3,39.4,57.3,39.7,57.3,40.2L57.3,40.2z"/>
		<path class="st0" d="M107.3,35.9c0.8,0,1.8,0,2.6,0c0.1,0,0.4,0,0.5,0c0.4,0,0.6,0.1,0.6,0.6c0,0.4,0,0.6,0,0.9
			c0,0.4-0.1,0.5-0.6,0.5c-0.5,0-0.8,0-1.3,0c-0.1,0-0.1,0-0.2,0c-0.2,0-0.4,0.1-0.4,0.4c0,0.1,0,0.2,0,0.4c0,1.7,0,3.3,0,5.1
			c0,0.6-0.1,0.7-0.7,0.7c-0.2,0-0.5,0-0.8,0c-0.5,0-0.7-0.1-0.7-0.7c0-1.2,0-2.2,0-3.4c0-0.6,0-1.2,0-1.9v-0.1
			c0-0.4-0.1-0.5-0.5-0.5s-0.8,0-1.2,0c-0.1,0-0.2,0-0.4,0c-0.2,0-0.4-0.1-0.4-0.4c0-0.4,0-0.8,0-1.2c0-0.4,0.1-0.4,0.5-0.5
			c0.5,0,0.9,0,1.5,0C106.3,35.9,106.8,35.9,107.3,35.9L107.3,35.9z"/>
		<path class="st0" d="M163.1,40.2c0-1.2,0-2.2,0-3.4c0-0.6,0.2-0.8,0.8-0.7c0.4,0,0.6,0,0.9,0s0.5,0.1,0.6,0.5c0,0.1,0,0.2,0,0.4
			c0,1.7,0,3.4,0,5.1c0,0.6,0.1,0.7,0.6,0.7c0.8,0,1.7,0,2.5,0h0.1c0.6,0,0.7,0.1,0.7,0.7c0,0.2,0,0.4,0,0.6c0,0.5-0.1,0.6-0.6,0.6
			c-1.3,0-2.5,0-3.8,0c-0.4,0-0.8,0-1.2,0c-0.5,0-0.6-0.1-0.6-0.6c0-0.4,0-0.6,0-0.9C163.1,42,163.1,41,163.1,40.2L163.1,40.2z"/>
		<path class="st0" d="M175,40.2c0,1.2,0,2.4,0,3.4c0,0.1,0,0.2,0,0.4c0,0.2-0.2,0.4-0.5,0.4c-0.5,0-0.8,0-1.3,0
			c-0.4,0-0.5-0.1-0.6-0.5c0-0.1,0-0.1,0-0.2c0-2.2,0-4.6,0-6.8c0-0.1,0-0.2,0-0.5c0-0.2,0.2-0.4,0.4-0.4s0.2,0,0.5,0s0.6,0,0.8,0
			c0.4,0,0.6,0.1,0.6,0.6s0,1.1,0,1.5C175,38.8,175,39.5,175,40.2L175,40.2z"/>
		<path class="st0" d="M98.2,40.2c0-1.2,0-2.4,0-3.5v-0.1c0-0.5,0.1-0.6,0.6-0.6c0.4,0,0.8,0,1.2,0c0.4,0,0.5,0.1,0.5,0.5
			c0,0.1,0,0.2,0,0.4c0,1.9,0,3.8,0,5.7c0,0.4,0,0.8,0,1.2c0,0.1,0,0.2,0,0.2c0,0.2-0.1,0.4-0.5,0.5c-0.5,0-0.9,0-1.4,0
			c-0.2,0-0.4-0.1-0.4-0.4c0-0.1,0-0.2,0-0.4C98.2,42.5,98.2,41.4,98.2,40.2L98.2,40.2z"/>
		<path class="st0" d="M81.7,33.3c0.2,0,0.5,0,0.8,0c0.1,0,0.2,0,0.2,0.1s0,0.2-0.1,0.2c-0.1,0.1-0.2,0.2-0.4,0.4
			c-0.4,0.2-0.7,0.6-0.9,0.8c-0.2,0.2-0.5,0.2-0.8,0.2c-0.2,0-0.5,0-0.6,0c-0.1,0-0.1,0-0.2,0c-0.4,0-0.4-0.2-0.2-0.5
			c0.2-0.2,0.5-0.6,0.7-0.8l0.1-0.1c0.1-0.4,0.5-0.5,0.8-0.5C81.2,33.3,81.5,33.3,81.7,33.3z"/>
	</g>
</g>
</svg>
